<svg viewBox="0 0 330 200" xmlns="http://www.w3.org/2000/svg"><g><g><g><g><g><line x1="51.5625" y1="176.921875" x2="46.5625" y2="176.921875" style="visibility: inherit;" fill="rgb(0, 0, 0)" stroke="rgb(204, 204, 204)" stroke-width="1px"></line><line x1="51.5625" y1="162.17838541666666" x2="46.5625" y2="162.17838541666666" style="visibility: inherit;" fill="rgb(0, 0, 0)" stroke="rgb(204, 204, 204)" stroke-width="1px"></line><line x1="51.5625" y1="147.43489583333334" x2="46.5625" y2="147.43489583333334" style="visibility: inherit;" fill="rgb(0, 0, 0)" stroke="rgb(204, 204, 204)" stroke-width="1px"></line><line x1="51.5625" y1="132.69140625" x2="46.5625" y2="132.69140625" style="visibility: inherit;" fill="rgb(0, 0, 0)" stroke="rgb(204, 204, 204)" stroke-width="1px"></line><line x1="51.5625" y1="117.94791666666669" x2="46.5625" y2="117.94791666666669" style="visibility: inherit;" fill="rgb(0, 0, 0)" stroke="rgb(204, 204, 204)" stroke-width="1px"></line><line x1="51.5625" y1="103.20442708333331" x2="46.5625" y2="103.20442708333331" style="visibility: inherit;" fill="rgb(0, 0, 0)" stroke="rgb(204, 204, 204)" stroke-width="1px"></line><line x1="51.5625" y1="88.4609375" x2="46.5625" y2="88.4609375" style="visibility: inherit;" fill="rgb(0, 0, 0)" stroke="rgb(204, 204, 204)" stroke-width="1px"></line><line x1="51.5625" y1="73.71744791666666" x2="46.5625" y2="73.71744791666666" style="visibility: inherit;" fill="rgb(0, 0, 0)" stroke="rgb(204, 204, 204)" stroke-width="1px"></line><line x1="51.5625" y1="58.97395833333334" x2="46.5625" y2="58.97395833333334" style="visibility: inherit;" fill="rgb(0, 0, 0)" stroke="rgb(204, 204, 204)" stroke-width="1px"></line><line x1="51.5625" y1="44.23046875" x2="46.5625" y2="44.23046875" style="visibility: inherit;" fill="rgb(0, 0, 0)" stroke="rgb(204, 204, 204)" stroke-width="1px"></line><line x1="51.5625" y1="29.48697916666666" x2="46.5625" y2="29.48697916666666" style="visibility: inherit;" fill="rgb(0, 0, 0)" stroke="rgb(204, 204, 204)" stroke-width="1px"></line><line x1="51.5625" y1="14.74348958333334" x2="46.5625" y2="14.74348958333334" style="visibility: inherit;" fill="rgb(0, 0, 0)" stroke="rgb(204, 204, 204)" stroke-width="1px"></line><line x1="51.5625" y1="0" x2="46.5625" y2="0" style="visibility: inherit;" fill="rgb(0, 0, 0)" stroke="rgb(204, 204, 204)" stroke-width="1px"></line></g><g transform="translate(41.5625, 0)"><text x="0" y="176.921875" dx="0em" dy="0.3em" style="text-anchor: end; visibility: hidden; font-family: Roboto, sans-serif; font-size: 12px; font-weight: 200;" fill="rgb(255, 255, 255)" stroke="none" stroke-width="1px">0.98</text><text x="0" y="162.17838541666666" dx="0em" dy="0.3em" style="text-anchor: end; visibility: inherit; font-family: Roboto, sans-serif; font-size: 12px; font-weight: 200;" fill="rgb(255, 255, 255)" stroke="none" stroke-width="1px">0.99</text><text x="0" y="147.43489583333334" dx="0em" dy="0.3em" style="text-anchor: end; visibility: hidden; font-family: Roboto, sans-serif; font-size: 12px; font-weight: 200;" fill="rgb(255, 255, 255)" stroke="none" stroke-width="1px">1</text><text x="0" y="132.69140625" dx="0em" dy="0.3em" style="text-anchor: end; visibility: inherit; font-family: Roboto, sans-serif; font-size: 12px; font-weight: 200;" fill="rgb(255, 255, 255)" stroke="none" stroke-width="1px">1.01</text><text x="0" y="117.94791666666669" dx="0em" dy="0.3em" style="text-anchor: end; visibility: hidden; font-family: Roboto, sans-serif; font-size: 12px; font-weight: 200;" fill="rgb(255, 255, 255)" stroke="none" stroke-width="1px">1.02</text><text x="0" y="103.20442708333331" dx="0em" dy="0.3em" style="text-anchor: end; visibility: inherit; font-family: Roboto, sans-serif; font-size: 12px; font-weight: 200;" fill="rgb(255, 255, 255)" stroke="none" stroke-width="1px">1.03</text><text x="0" y="88.4609375" dx="0em" dy="0.3em" style="text-anchor: end; visibility: hidden; font-family: Roboto, sans-serif; font-size: 12px; font-weight: 200;" fill="rgb(255, 255, 255)" stroke="none" stroke-width="1px">1.04</text><text x="0" y="73.71744791666666" dx="0em" dy="0.3em" style="text-anchor: end; visibility: inherit; font-family: Roboto, sans-serif; font-size: 12px; font-weight: 200;" fill="rgb(255, 255, 255)" stroke="none" stroke-width="1px">1.05</text><text x="0" y="58.97395833333334" dx="0em" dy="0.3em" style="text-anchor: end; visibility: hidden; font-family: Roboto, sans-serif; font-size: 12px; font-weight: 200;" fill="rgb(255, 255, 255)" stroke="none" stroke-width="1px">1.06</text><text x="0" y="44.23046875" dx="0em" dy="0.3em" style="text-anchor: end; visibility: inherit; font-family: Roboto, sans-serif; font-size: 12px; font-weight: 200;" fill="rgb(255, 255, 255)" stroke="none" stroke-width="1px">1.07</text><text x="0" y="29.48697916666666" dx="0em" dy="0.3em" style="text-anchor: end; visibility: hidden; font-family: Roboto, sans-serif; font-size: 12px; font-weight: 200;" fill="rgb(255, 255, 255)" stroke="none" stroke-width="1px">1.08</text><text x="0" y="14.74348958333334" dx="0em" dy="0.3em" style="text-anchor: end; visibility: inherit; font-family: Roboto, sans-serif; font-size: 12px; font-weight: 200;" fill="rgb(255, 255, 255)" stroke="none" stroke-width="1px">1.09</text><text x="0" y="0" dx="0em" dy="0.3em" style="text-anchor: end; visibility: hidden; font-family: Roboto, sans-serif; font-size: 12px; font-weight: 200;" fill="rgb(255, 255, 255)" stroke="none" stroke-width="1px">1.1</text></g><line x1="51.5625" y1="0" x2="51.5625" y2="176.921875" fill="rgb(0, 0, 0)" stroke="rgb(204, 204, 204)" stroke-width="1px"></line></g></g><g transform="translate(51, 0)" clip-path="url(#clip_0)"><clipPath id="clip_0"><rect width="278" height="176"></rect></clipPath><g><g><g><line x1="0" y1="0" x2="0" y2="176.921875" fill="rgb(0, 0, 0)" stroke="rgb(189, 189, 189)" stroke-width="1px" opacity="0.25"></line><line x1="30.9375" y1="0" x2="30.9375" y2="176.921875" fill="rgb(0, 0, 0)" stroke="rgb(189, 189, 189)" stroke-width="1px" opacity="0.25"></line><line x1="61.875" y1="0" x2="61.875" y2="176.921875" fill="rgb(0, 0, 0)" stroke="rgb(189, 189, 189)" stroke-width="1px" opacity="0.25"></line><line x1="92.8125" y1="0" x2="92.8125" y2="176.921875" fill="rgb(0, 0, 0)" stroke="rgb(189, 189, 189)" stroke-width="1px" opacity="0.25"></line><line x1="123.75" y1="0" x2="123.75" y2="176.921875" fill="rgb(0, 0, 0)" stroke="rgb(189, 189, 189)" stroke-width="1px" opacity="0.25"></line><line x1="154.6875" y1="0" x2="154.6875" y2="176.921875" fill="rgb(0, 0, 0)" stroke="rgb(189, 189, 189)" stroke-width="1px" opacity="0.25"></line><line x1="185.625" y1="0" x2="185.625" y2="176.921875" fill="rgb(0, 0, 0)" stroke="rgb(189, 189, 189)" stroke-width="1px" opacity="0.25"></line><line x1="216.5625" y1="0" x2="216.5625" y2="176.921875" fill="rgb(0, 0, 0)" stroke="rgb(189, 189, 189)" stroke-width="1px" opacity="0.25"></line><line x1="247.5" y1="0" x2="247.5" y2="176.921875" fill="rgb(0, 0, 0)" stroke="rgb(189, 189, 189)" stroke-width="1px" opacity="0.25"></line><line x1="278.4375" y1="0" x2="278.4375" y2="176.921875" fill="rgb(0, 0, 0)" stroke="rgb(189, 189, 189)" stroke-width="1px" opacity="0.25"></line></g><g><line x1="0" y1="176.921875" x2="278.4375" y2="176.921875" fill="rgb(0, 0, 0)" stroke="rgb(189, 189, 189)" stroke-width="1px" opacity="0.25"></line><line x1="0" y1="162.17838541666666" x2="278.4375" y2="162.17838541666666" fill="rgb(0, 0, 0)" stroke="rgb(189, 189, 189)" stroke-width="1px" opacity="0.25"></line><line x1="0" y1="147.43489583333334" x2="278.4375" y2="147.43489583333334" fill="rgb(0, 0, 0)" stroke="rgb(189, 189, 189)" stroke-width="1px" opacity="0.25"></line><line x1="0" y1="132.69140625" x2="278.4375" y2="132.69140625" fill="rgb(0, 0, 0)" stroke="rgb(189, 189, 189)" stroke-width="1px" opacity="0.25"></line><line x1="0" y1="117.94791666666669" x2="278.4375" y2="117.94791666666669" fill="rgb(0, 0, 0)" stroke="rgb(189, 189, 189)" stroke-width="1px" opacity="0.25"></line><line x1="0" y1="103.20442708333331" x2="278.4375" y2="103.20442708333331" fill="rgb(0, 0, 0)" stroke="rgb(189, 189, 189)" stroke-width="1px" opacity="0.25"></line><line x1="0" y1="88.4609375" x2="278.4375" y2="88.4609375" fill="rgb(0, 0, 0)" stroke="rgb(189, 189, 189)" stroke-width="1px" opacity="0.25"></line><line x1="0" y1="73.71744791666666" x2="278.4375" y2="73.71744791666666" fill="rgb(0, 0, 0)" stroke="rgb(189, 189, 189)" stroke-width="1px" opacity="0.25"></line><line x1="0" y1="58.97395833333334" x2="278.4375" y2="58.97395833333334" fill="rgb(0, 0, 0)" stroke="rgb(189, 189, 189)" stroke-width="1px" opacity="0.25"></line><line x1="0" y1="44.23046875" x2="278.4375" y2="44.23046875" fill="rgb(0, 0, 0)" stroke="rgb(189, 189, 189)" stroke-width="1px" opacity="0.25"></line><line x1="0" y1="29.48697916666666" x2="278.4375" y2="29.48697916666666" fill="rgb(0, 0, 0)" stroke="rgb(189, 189, 189)" stroke-width="1px" opacity="0.25"></line><line x1="0" y1="14.74348958333334" x2="278.4375" y2="14.74348958333334" fill="rgb(0, 0, 0)" stroke="rgb(189, 189, 189)" stroke-width="1px" opacity="0.25"></line><line x1="0" y1="0" x2="278.4375" y2="0" fill="rgb(0, 0, 0)" stroke="rgb(189, 189, 189)" stroke-width="1px" opacity="0.25"></line></g></g></g><g><g><line x1="0" y1="1621.7838541666654" x2="278.4375" y2="1621.7838541666654" fill="rgb(0, 0, 0)" stroke="rgb(153, 153, 153)" stroke-width="1.5px"></line></g></g><g><g><line x1="30.9375" y1="0" x2="30.9375" y2="176.921875" fill="rgb(0, 0, 0)" stroke="rgb(153, 153, 153)" stroke-width="1.5px"></line></g></g><g><g><g><g><g><path stroke="rgb(238, 51, 119)" stroke-width="2px" d="M39.58453125,-23.07716217246937L41.750156249999996,10.823883032187231L43.91578125,34.401885306822315L46.08140625,49.4648269279505L48.24703125,61.812653464900436L50.41265625,71.1662495481309L52.578281249999996,78.13988248761896L54.743906249999995,83.74772886319828L56.90953125,88.74389633224627L59.07515625,94.30585234984778L61.24078125,98.5512626569606L63.406406249999996,102.31852841367368L65.57203125,105.52204142280577L67.73765625,108.39190021771677L69.90328124999999,111.63233206021127L72.06890625000001,113.7822386090413L74.23453125,116.62619087543037L76.40015625000001,118.58193420449349L78.56578125,121.21625660793391L80.73140625,123.58759591233589L82.89703125,125.67889654822139L85.06265625,127.98153138657568L87.22828125,129.58891991188048L89.39390625,131.5101684156872L91.55953124999999,132.34374300064405L93.72515625000001,133.7831283250447L95.89078125,135.54409968130452L98.05640625000001,136.1096196600761L100.22203125,138.07116045642513L102.38765625,139.67278187500398L104.55328125,140.00848478684225L106.71890625,141.2330882098256L108.88453125,142.99771065670294L111.05015625,144.36757239772072L113.21578124999999,145.17064838378707L115.38140625,146.74678655517542L117.54703125,147.93364196535094L119.71265625000001,148.45650105056072L121.87828125,148.46418999410167L124.04390625,149.1231432904556L126.20953125,150.31254614014694L128.37515625,150.96263444700196L130.54078125,151.3585928357591L132.70640625,151.68376470519024L134.87203125,153.00448014165684L137.03765625,154.0723543507049L139.20328125,154.5155993312944L141.36890624999998,155.2432927242165L143.53453125,156.0536716649454L145.70015625,156.37029440072337L147.86578125,156.7331065829382L150.03140625,156.8228434573831L152.19703125,157.6945138287532L154.36265625000001,158.3097176973715L156.52828125000002,158.79374935140874L158.69390625,158.53950021511716L160.85953125,158.79175216414376L163.02515625,159.1791789161634L165.19078125000001,160.11704961771596L167.35640625,160.16220549930028L169.52203125,160.9093014342174L171.68765625,161.02218122065574L173.85328125,161.17993136277585L176.01890625,161.0676110742587L178.18453125,161.78637590009558L180.35015625,161.72467410911275L182.51578125,162.3539092275946L184.68140624999998,162.56356807972676L186.84703125,163.03767681387984L189.01265625,163.19679280964772L191.17828125,163.0307724936202L193.34390625,163.5348824795868L195.50953125,163.77073691234705L197.67515625000001,163.8236685016992L199.84078125000002,164.48674333731768L202.00640625,164.1373436384823L204.17203125,164.62404945518134L206.33765625,164.7783153203908L208.50328125000001,164.81913224606905L210.66890625,164.59257239984487L212.83453125,165.18848485866891L215.00015625,165.28967449835758L217.16578125,165.60590248853546L219.33140625,166.07017029814773L221.49703125,165.83239473721093L223.66265625,166.0249665702872L225.82828125,166.04869468773856L227.99390624999998,166.34291101256272L230.15953125,165.99874580967492L232.32515625,166.22646968852317L234.49078125,166.51752331815163L236.65640624999997,166.5968956941335L238.82203125,166.8691354051362L240.98765625000001,166.9173941427796L243.15328125000002,166.93699916127798L245.31890625,166.47699767057185L247.48453125,166.88254374921263" style="fill: none;" fill="none"></path></g></g></g></g><g opacity="0.2"><g><g><g><path stroke="rgb(238, 51, 119)" stroke-width="2px" d="M35.25328125,-8.576756678521477L37.41890625,23.51103301470489L39.58453125,43.06723760130514L41.750156249999996,55.085087651386935L43.91578125,67.01875053346166L46.08140625,71.00507445322978L48.24703125,79.81590309490767L50.41265625,84.9609869283935L52.578281249999996,88.4949146676809L54.743906249999995,92.1086356726786L56.90953125,96.21095861308281L59.07515625,102.63062562483057L61.24078125,104.91106091688081L63.406406249999996,107.96499876926346L65.57203125,110.3250515709321L67.73765625,112.69547398202126L69.90328124999999,116.49215707865856L72.06890625000001,117.00677091566227L74.23453125,120.89185932651164L76.40015625000001,121.51544194047652L78.56578125,125.16765352959436L80.73140625,127.1445580509802L82.89703125,128.81582272859913L85.06265625,131.435467277964L87.22828125,131.99999584505957L89.39390625,134.39203625544906L91.55953124999999,133.59410359834632L93.72515625000001,135.9422049857676L95.89078125,138.18555574243268L98.05640625000001,136.95789944070083L100.22203125,141.01347126066685L102.38765625,142.07521381167075L104.55328125,140.5120391305536L106.71890625,143.0699932916711L108.88453125,145.6446442815165L111.05015625,146.42236498805386L113.21578124999999,146.37526235543191L115.38140625,149.11099380347878L117.54703125,149.7139250766486L119.71265625000001,149.24078967732686L121.87828125,148.47572340940434L124.04390625,150.1115732345109L126.20953125,152.09665041416883L128.37515625,151.93776690711576L130.54078125,151.95253041883308L132.70640625,152.17152250930667L134.87203125,154.9855532962829L137.03765625,155.67416566424072L139.20328125,155.18046680216986L141.36890624999998,156.33483281359076L143.53453125,157.26924007603276L145.70015625,156.84522850438952L147.86578125,157.27732485625893L150.03140625,156.95744876905033L152.19703125,159.00201938580722L154.36265625000001,159.23252350029844L156.52828125000002,159.51979683246464L158.69390625,158.15812651067972L160.85953125,159.1701300876836L163.02515625,159.7603190441926L165.19078125000001,161.5238556700448L167.35640625,160.22993932167688L169.52203125,162.02994533659268L171.68765625,161.19150090031323L173.85328125,161.41655657595643L176.01890625,160.89913064148274L178.18453125,162.8645231388509L180.35015625,161.63212142263848L182.51578125,163.2977619053175L184.68140624999998,162.87805635792512L186.84703125,163.74883991510916L189.01265625,163.43546680329987L191.17828125,162.7817420195788L193.34390625,164.2910474585369L195.50953125,164.12451856148738L197.67515625000001,163.90306588572759L199.84078125000002,165.48135559074578L202.00640625,163.61324409022924L204.17203125,165.35410818022984L206.33765625,165.00971411820498L208.50328125000001,164.88035763458657L210.66890625,164.25273263050863L212.83453125,166.08235354690498L215.00015625,165.44145895789063L217.16578125,166.0802444738025L219.33140625,166.766572012566L221.49703125,165.47573139580584L223.66265625,166.31382431990153L225.82828125,166.0842868639156L227.99390624999998,166.78423549979922L230.15953125,165.48249800534296L232.32515625,166.56805550679562L234.49078125,166.95410376259434L236.65640624999997,166.71595425810662L238.82203125,167.27749497164038L240.98765625000001,166.9897822492445L243.15328125000002,166.96640668902543L245.31890625,165.78699543451268L247.48453125,167.49086286717403" style="fill: none;" fill="none"></path></g></g></g></g></g></g><g transform="translate(51, 176)" clip-path="url(#clip_1)"><clipPath id="clip_1"><rect width="278" height="23"></rect></clipPath><g><g><line x1="0" y1="0" x2="0" y2="5" style="visibility: inherit;" fill="rgb(0, 0, 0)" stroke="rgb(204, 204, 204)" stroke-width="1px"></line><line x1="30.9375" y1="0" x2="30.9375" y2="5" style="visibility: inherit;" fill="rgb(0, 0, 0)" stroke="rgb(204, 204, 204)" stroke-width="1px"></line><line x1="61.875" y1="0" x2="61.875" y2="5" style="visibility: inherit;" fill="rgb(0, 0, 0)" stroke="rgb(204, 204, 204)" stroke-width="1px"></line><line x1="92.8125" y1="0" x2="92.8125" y2="5" style="visibility: inherit;" fill="rgb(0, 0, 0)" stroke="rgb(204, 204, 204)" stroke-width="1px"></line><line x1="123.75" y1="0" x2="123.75" y2="5" style="visibility: inherit;" fill="rgb(0, 0, 0)" stroke="rgb(204, 204, 204)" stroke-width="1px"></line><line x1="154.6875" y1="0" x2="154.6875" y2="5" style="visibility: inherit;" fill="rgb(0, 0, 0)" stroke="rgb(204, 204, 204)" stroke-width="1px"></line><line x1="185.625" y1="0" x2="185.625" y2="5" style="visibility: inherit;" fill="rgb(0, 0, 0)" stroke="rgb(204, 204, 204)" stroke-width="1px"></line><line x1="216.5625" y1="0" x2="216.5625" y2="5" style="visibility: inherit;" fill="rgb(0, 0, 0)" stroke="rgb(204, 204, 204)" stroke-width="1px"></line><line x1="247.5" y1="0" x2="247.5" y2="5" style="visibility: inherit;" fill="rgb(0, 0, 0)" stroke="rgb(204, 204, 204)" stroke-width="1px"></line><line x1="278.4375" y1="0" x2="278.4375" y2="5" style="visibility: inherit;" fill="rgb(0, 0, 0)" stroke="rgb(204, 204, 204)" stroke-width="1px"></line></g><g transform="translate(0, 8)"><text x="0" y="0" dx="0em" dy="0.95em" style="text-anchor: middle; visibility: hidden; font-family: Roboto, sans-serif; font-size: 12px; font-weight: 200;" fill="rgb(255, 255, 255)" stroke="none" stroke-width="1px">-2k</text><text x="30.9375" y="0" dx="0em" dy="0.95em" style="text-anchor: middle; visibility: inherit; font-family: Roboto, sans-serif; font-size: 12px; font-weight: 200;" fill="rgb(255, 255, 255)" stroke="none" stroke-width="1px">0</text><text x="61.875" y="0" dx="0em" dy="0.95em" style="text-anchor: middle; visibility: inherit; font-family: Roboto, sans-serif; font-size: 12px; font-weight: 200;" fill="rgb(255, 255, 255)" stroke="none" stroke-width="1px">2k</text><text x="92.8125" y="0" dx="0em" dy="0.95em" style="text-anchor: middle; visibility: inherit; font-family: Roboto, sans-serif; font-size: 12px; font-weight: 200;" fill="rgb(255, 255, 255)" stroke="none" stroke-width="1px">4k</text><text x="123.75" y="0" dx="0em" dy="0.95em" style="text-anchor: middle; visibility: inherit; font-family: Roboto, sans-serif; font-size: 12px; font-weight: 200;" fill="rgb(255, 255, 255)" stroke="none" stroke-width="1px">6k</text><text x="154.6875" y="0" dx="0em" dy="0.95em" style="text-anchor: middle; visibility: inherit; font-family: Roboto, sans-serif; font-size: 12px; font-weight: 200;" fill="rgb(255, 255, 255)" stroke="none" stroke-width="1px">8k</text><text x="185.625" y="0" dx="0em" dy="0.95em" style="text-anchor: middle; visibility: inherit; font-family: Roboto, sans-serif; font-size: 12px; font-weight: 200;" fill="rgb(255, 255, 255)" stroke="none" stroke-width="1px">10k</text><text x="216.5625" y="0" dx="0em" dy="0.95em" style="text-anchor: middle; visibility: inherit; font-family: Roboto, sans-serif; font-size: 12px; font-weight: 200;" fill="rgb(255, 255, 255)" stroke="none" stroke-width="1px">12k</text><text x="247.5" y="0" dx="0em" dy="0.95em" style="text-anchor: middle; visibility: inherit; font-family: Roboto, sans-serif; font-size: 12px; font-weight: 200;" fill="rgb(255, 255, 255)" stroke="none" stroke-width="1px">14k</text><text x="278.4375" y="0" dx="0em" dy="0.95em" style="text-anchor: middle; visibility: hidden; font-family: Roboto, sans-serif; font-size: 12px; font-weight: 200;" fill="rgb(255, 255, 255)" stroke="none" stroke-width="1px">16k</text></g><line x1="0" y1="0" x2="278.4375" y2="0" fill="rgb(0, 0, 0)" stroke="rgb(204, 204, 204)" stroke-width="1px"></line></g></g></g></g></svg>